<svg width="90" height="48" viewBox="0 0 90 48" fill="none" xmlns="http://www.w3.org/2000/svg">
<path fill-rule="evenodd" clip-rule="evenodd" d="M4.73523 22.0176C0.424044 30.0095 0.973611 34.4902 4.73523 42.4821C14.5782 43.0984 15.3131 45.5733 18.6755 47H39.1276H51.4554L61.8374 46.1786L72.2198 44.2835H86.2358C88.5587 37.7653 88.7888 33.4305 86.2358 23.8189L72.2198 22.6676C65.4714 19.8929 58.7229 18.6607 51.4554 17.8393L60.2803 5.88976H68.9353C70.8549 4.54884 71.3521 3.62551 68.9353 1H39.1276H9.31984C7.3375 3.57784 7.56264 4.57263 9.31984 5.88976H17.194L26.0189 17.1181H18.6755C15.5191 21.1014 14.6494 20.9834 4.73523 22.0176ZM32.7673 17.1181L23.9424 5.88976H35.882V17.1181H32.7673ZM41.9561 17.1181V5.88976H53.5318L45.226 17.1181H41.9561Z" fill="#E6E5E5" stroke="#5AD620" stroke-width="2"/>
</svg>
